<?xml version="1.0" encoding="UTF-8" standalone="no"?>
<!-- Created with Inkscape (http://www.inkscape.org/) -->
<svg xmlns:dc="http://purl.org/dc/elements/1.1/" xmlns:cc="http://creativecommons.org/ns#" xmlns:rdf="http://www.w3.org/1999/02/22-rdf-syntax-ns#" xmlns:svg="http://www.w3.org/2000/svg" xmlns="http://www.w3.org/2000/svg" xmlns:sodipodi="http://sodipodi.sourceforge.net/DTD/sodipodi-0.dtd" xmlns:inkscape="http://www.inkscape.org/namespaces/inkscape" id="svg2" sodipodi:version="0.32" inkscape:version="0.46" width="606.6673" height="97.108879" xml:space="preserve" sodipodi:docname="Région Île-de-France.svg" version="1.0" inkscape:output_extension="org.inkscape.output.svg.inkscape"><metadata id="metadata7"><rdf:RDF><cc:Work rdf:about=""><dc:format>image/svg+xml</dc:format><dc:type rdf:resource="http://purl.org/dc/dcmitype/StillImage"/></cc:Work></rdf:RDF></metadata><defs id="defs5"><inkscape:perspective sodipodi:type="inkscape:persp3d" inkscape:vp_x="0 : 526.18109 : 1" inkscape:vp_y="0 : 1000 : 0" inkscape:vp_z="744.09448 : 526.18109 : 1" inkscape:persp3d-origin="372.04724 : 350.78739 : 1" id="perspective9"/></defs><sodipodi:namedview inkscape:window-height="726" inkscape:window-width="645" inkscape:pageshadow="2" inkscape:pageopacity="0.0" guidetolerance="10.0" gridtolerance="10.0" objecttolerance="10.0" borderopacity="1.0" bordercolor="#666666" pagecolor="#ffffff" id="base" showgrid="false" inkscape:zoom="0.91687243" inkscape:cx="303.75" inkscape:cy="48.75" inkscape:window-x="369" inkscape:window-y="25" inkscape:current-layer="g11"/><g id="g11" inkscape:groupmode="layer" inkscape:label="IDF_QUADRI" transform="matrix(1.25,0,0,-1.25,-0.6552737,97.3145)"><g id="g13" transform="scale(0.1,0.1)"><path d="M 557.031,565.898 C 554.602,564.961 545.812,562.324 546.523,561.973 C 545.812,562.324 545.242,562.441 545.281,563.066 C 546.25,566.406 530.812,552.051 530.078,557.578 C 529.629,558.516 530.812,557.344 528.633,557.93 C 534.277,557.148 494.102,544.434 494.102,545.137 C 492.18,549.297 492.605,553.418 495.168,557.227 C 498.34,565.195 488.293,576.562 492.078,573.223 C 489.355,575.977 489.355,578.574 491.98,581.348 C 493.711,580.098 492.078,581.738 492.988,585.273 C 494.102,585.977 490.906,590.371 493.809,588.809 C 496.34,589.551 500.496,603.75 497.52,613.887 C 490.906,629.219 493.711,739.902 497.062,735.664 C 498.242,743.32 491.16,748.965 494.551,754.609 C 494.805,760.43 489.258,760.625 490,764.551 C 487.043,776.23 470.598,776.035 472.402,778.516 C 463.711,776.582 431.68,725.039 431.367,723.73 C 433.328,725.625 409.688,690.078 410.156,689.961 C 407.551,690.547 404.609,685.957 404.055,680.625 C 403.816,679.98 390.637,663.711 392.051,666.895 C 387.539,659.316 382.207,652.09 378.047,644.355 C 381.277,646.406 372.219,638.086 373.574,638.359 C 373.77,639.258 363.367,613.32 363.254,615.566 C 364.23,619.062 350.461,602.812 349.016,602.695 C 346.105,590.879 302.363,619.766 301.531,632.988 C 301.648,633.457 300.637,645.234 294.746,646.641 C 297.336,644.355 263.633,675.039 266.184,672.656 C 248.562,696.113 234.695,695.449 208.645,718.242 C 208.816,718.594 202.559,733.066 198.145,738.184 C 188.301,735.781 175,720.488 177.805,716.719 C 173.586,714.941 172.805,720.254 171.152,722.051 C 169.824,716.289 175.469,683.008 175.469,683.008 C 174.844,678.223 177.742,653.516 178.809,657.188 L 180.715,655.039 C 180.715,654.805 177.742,651.348 181.395,648.945 C 185.398,641.895 193.496,636.914 190.613,627.07 C 187.078,625.293 191.047,612.383 190.422,616.582 C 186.438,596.191 234.324,557.852 227.695,530.625 C 224.629,528.184 236.836,513.711 234.324,514.375 C 230.168,509.512 217.805,506.406 209.172,504.102 C 206.641,502.637 204.031,503.945 201.309,504.766 C 198.699,505.273 176.98,514.141 170.879,510.02 C 170.645,509.395 152.871,514.141 152.754,513.359 C 155.945,516.973 132.434,508.379 135.957,516.016 C 137.488,521.953 115.48,509.746 120.918,512.969 C 120.559,512.734 111.316,507.559 111.555,509.082 C 112.285,511.152 103.164,509.316 105.242,508.809 C 103.867,509.199 94.5312,511.875 95.8984,510.957 C 90.7227,514.375 89.6406,509.746 83.5234,512.695 C 83.1523,511.992 76.1992,511.035 74.9102,511.387 C 74.4805,511.504 61.1445,510.918 61.1445,511.309 C 62.1953,511.758 49.4414,507.598 48.5859,510.918 C 49.0547,511.504 38.5156,503.516 35.5586,508.457 C 36.875,512.539 23.6719,505.117 21.5938,504.805 C 19.9805,505.117 13.3125,508.027 14.6094,505.938 C 13.5078,505.352 5.24219,495.234 5.24219,495.234 C 6.79688,494.766 50.5859,461.91 43.7227,467.047 C 43.7227,467.047 48.4453,463.102 59.9414,456.266 C 58.1133,451.363 76.8555,456.031 73.8086,445.406 C 91.2305,455.68 126.934,407.652 139.473,415.27 C 141.062,415.27 146.395,406.871 148.145,407.535 C 145.32,409.977 157.207,403.609 153.477,403.883 C 155.129,401.93 154.52,402.633 160.203,396.754 C 174.473,397.379 180.535,385.602 185.266,381.637 C 200.938,351.461 135.879,322.32 130.273,307.086 C 130.059,306.305 130.059,305.68 129.188,305.914 C 129.922,305.211 120.09,301.637 118.953,296.891 L 109.199,284.215 C 100.527,286.695 78.4961,251.695 69.5703,247.184 L 48.3516,237.379 C 48.3516,237.379 45.3594,234.469 43.3672,231.52 C 41.4258,228.473 38.5156,224.938 36.3789,224.195 C 34.543,223.473 21.3555,210.465 21.3555,210.465 L 18.0977,204.293 L 23.3984,201.949 C 23.3984,201.949 19.9805,197.945 19.4727,196.207 C 18.7383,194.723 16.8477,190.367 20.957,189.43 C 25.2344,188.453 27.6289,188.453 28.6328,186.441 C 29.5508,184.41 46.6211,183.102 47.9961,183.375 C 49.2695,183.824 57.7656,187.574 57.7656,187.574 C 65.9688,190.172 92.8047,189.781 95.8984,187.105 C 95.3516,187.223 134.902,196.832 135.957,200.016 C 137.258,199.82 160.32,208.102 160.32,208.102 C 166.641,211.051 181.062,213.395 185.676,218.648 C 181.277,217.789 204.27,225.719 210.762,222.535 C 212.766,221.441 268.184,232.945 270.09,240.074 C 274.562,239.605 275.066,235.445 275.32,235.211 C 274.031,227.867 275.168,207.516 272.422,203.98 C 272.52,206.891 264.648,198.688 267.324,194.332 C 272.891,192.594 272.617,194.605 276.074,186.441 C 274.465,190.133 276.465,169.996 275.996,162.75 C 276.191,158.863 282.41,146.031 272.129,140.973 C 272.129,140.973 266.316,128.883 266.062,129.078 C 266.824,134.996 266.824,126.051 265.715,127.75 C 270.906,130.211 269.363,114.332 268.184,112.398 C 269.172,114.879 265.48,109.352 265.105,111.227 C 256.73,94.8125 274.348,92.9805 264.18,91.1445 C 268.535,89.8359 270.812,68.0195 270.535,71.1992 C 271.523,63.8555 270.906,56.7695 268.652,49.8125 C 267.188,54.3633 264.719,41.457 265.48,37.9375 C 267.188,29.7344 263.105,14.2695 270.906,10.6914 C 269.719,13.918 276.816,3.17578 276.816,3.17578 C 295.098,-4.5625 299.57,19.3633 307.695,23.1367 C 310.461,23.7227 313.621,34.7578 316.27,33.8945 C 316.523,34.7578 327.512,87.2969 335.969,84.582 C 335.574,84.582 350.105,106.168 353.086,115.387 C 352.969,114.762 346.105,122.926 360.684,129.273 C 367.766,126.891 371.047,145.797 372.859,156.578 C 373.34,162.75 377.695,159.762 378.32,166.324 C 378.203,164.508 390.867,185.699 392.949,194.371 C 395.027,194.254 395.344,203.98 396.797,202.652 C 392.852,206.07 400.234,210.094 399.27,213.082 C 400.625,218.297 400.176,222.965 402.449,222.535 C 404.609,232.711 410.984,228.277 412.41,227.359 C 415.438,225.719 419.609,228.277 420.105,220.738 C 417.18,216.969 429.562,213.395 428.496,211.051 C 428.145,212.848 487.629,142.691 504.055,129.234 C 504.812,128.531 550.879,82.8203 548.879,83.293 C 553.977,80.6523 558.254,71.3945 558.605,72.0625 C 556.68,69.0938 567.395,64.2305 569.277,64.2305 C 576.262,52.0195 576.609,54.5195 580.344,56.6094 C 581.562,51.1641 590.82,53.7773 594.211,52.0195 C 593.176,54.6406 601.492,56.9648 599.688,59.875 C 602.195,58.9961 597.98,69.7578 600.312,68.4844 C 597.336,73.6055 579.895,96.8242 581.105,101.07 C 581.465,102.516 583.594,101.969 584.895,101.695 C 584.656,103.062 582.656,104.488 581.465,105.465 C 584.656,105.543 585.359,107.223 583.594,110.602 C 580.461,108.883 576.16,128.727 578.887,131.52 C 579.988,136.578 564.648,198.688 557.395,204.762 C 557.859,206.93 554.883,220.621 554.309,221.793 C 542.285,229.293 552.227,244.312 543.938,246.949 C 541.992,243.219 533.34,257.379 532.102,269.156 C 528.113,276.48 532.102,294.02 529.375,291.402 C 527.02,294.059 541.855,300.387 545.535,292.301 C 576.848,280.445 636.66,300.113 658.301,283.355 C 663.398,293.004 674.902,285.504 668.738,287.281 C 667.793,286.109 669.836,285.543 671.25,285.152 C 668.367,285.758 692.305,287.281 695.93,285.387 C 686.711,287.633 709.465,286.148 708.562,286.5 C 700.48,288.258 724.727,283.59 750.547,299.605 C 759.824,302.457 758.113,307.281 762.004,316.148 C 760.43,308.59 764.414,323.727 756.57,328.512 C 710.82,339.977 674.426,373.746 628.855,385.68 C 611.199,389.449 582.656,432.691 567.488,429.938 C 595.078,461.441 621.836,492.793 650.281,519.551 C 655.867,524.922 712.898,586.445 712.898,585.703 C 715.02,588.809 718.215,599.043 717.98,594.648 C 718.098,596.113 717.395,598.066 715.859,600.273 C 715.742,599.512 694.426,616.191 688.867,605.801 C 696.379,601.133 673.645,599.512 668.074,598.223 C 666.367,597.168 664.934,597.598 663.645,597.949 C 657.949,599.355 650.496,592.852 646.688,591.992 C 638.352,599.434 617.461,585.625 607.961,582.441 C 608.75,582.852 603.887,581.855 596.504,583.438 C 593.328,578.223 593.43,579.707 594.211,580.176 C 591.445,578.691 589.133,576.328 577.988,572.52 C 579.246,572.051 570.93,568.555 567.742,569.395 C 568.02,567.93 566.492,564.004 561.594,564.961 C 557.898,565.898 558.391,567.305 557.031,565.898" style="fill:#ee2722;fill-opacity:1;fill-rule:nonzero;stroke:none" id="path15"/><path d="M 972.07,591.719 L 872.355,591.719 L 959.551,707.617 L 1077.87,707.617 L 1165.14,591.719 L 1065.47,591.719 L 1018.76,654.102 L 972.07,591.719 M 952.527,143.785 L 952.527,548.086 L 1084.89,548.086 L 1084.89,143.785 L 952.527,143.785 L 952.527,143.785" style="fill:#ee2722;fill-opacity:1;fill-rule:nonzero;stroke:none" id="path17"/><path d="M 1149.38,699.961 L 1281.82,699.961 L 1281.82,143.785 L 1149.38,143.785 L 1149.38,699.961" style="fill:#ee2722;fill-opacity:1;fill-rule:nonzero;stroke:none" id="path19"/><path d="M 1449.21,313.609 C 1451.54,258.316 1483.51,221.715 1539.67,221.715 C 1571.43,221.715 1602.64,236.539 1615.1,266.207 L 1739.03,266.207 C 1714.91,172.672 1628.32,132.184 1537.98,132.184 C 1406.41,132.184 1316.82,211.637 1316.82,347.105 C 1316.82,470.934 1415.74,559.766 1534.9,559.766 C 1679.8,559.766 1752.22,450.66 1746.05,313.609 L 1449.21,313.609 M 1613.56,387.438 C 1611.25,432.887 1579.24,470.191 1534.9,470.191 C 1488.21,470.191 1457.06,436.734 1449.21,387.438 L 1613.56,387.438 L 1613.56,387.438" style="fill:#ee2722;fill-opacity:1;fill-rule:nonzero;stroke:none" id="path21"/><path d="M 2067.45,143.785 L 2015.23,143.785 L 2015.23,186.715 L 2013.98,186.715 C 1996.85,151.754 1956.22,136.461 1912.7,136.461 C 1815.01,136.461 1766.55,213.863 1766.55,303.453 C 1766.55,393.102 1814.44,468.668 1911.52,468.668 C 1943.98,468.668 1990.65,456.461 2013.98,418.961 L 2015.23,418.961 L 2015.23,582.246 L 2067.45,582.246 L 2067.45,143.785 M 1919.95,182.555 C 1989.99,182.555 2017.02,242.711 2017.02,302.184 C 2017.02,364.957 1988.7,422.555 1917,422.555 C 1845.77,422.555 1821.75,361.832 1821.75,299.762 C 1821.75,240.27 1852.51,182.555 1919.95,182.555 L 1919.95,182.555" style="fill:#ee2722;fill-opacity:1;fill-rule:nonzero;stroke:none" id="path23"/><path d="M 2387.96,244.508 C 2373.78,174.547 2323.51,136.461 2252.2,136.461 C 2150.91,136.461 2102.96,206.461 2099.93,303.453 C 2099.93,398.707 2162.59,468.668 2249.19,468.668 C 2361.52,468.668 2395.93,363.629 2392.82,286.812 L 2155.2,286.812 C 2153.37,231.48 2184.77,182.555 2254.02,182.555 C 2297,182.555 2327.1,203.512 2336.34,244.508 L 2387.96,244.508 M 2337.51,332.945 C 2335.09,382.73 2297.73,422.555 2246.05,422.555 C 2191.38,422.555 2158.86,381.48 2155.2,332.945 L 2337.51,332.945 L 2337.51,332.945" style="fill:#ee2722;fill-opacity:1;fill-rule:nonzero;stroke:none" id="path25"/><path d="M 2426.73,699.961 L 2836.3,699.961 L 2836.3,583.906 L 2571.46,583.906 L 2571.46,470.191 L 2800.48,470.191 L 2800.48,358.062 L 2571.46,358.062 L 2571.46,143.785 L 2426.73,143.785 L 2426.73,699.961" style="fill:#ee2722;fill-opacity:1;fill-rule:nonzero;stroke:none" id="path27"/><path d="M 2862.78,548.086 L 2991.36,548.086 L 2991.36,477.184 L 2992.77,477.184 C 3012.34,528.574 3057.39,555.977 3114.35,555.977 C 3124.44,555.977 3135.3,554.98 3145.5,552.676 L 3145.5,432.027 C 3128.33,436.734 3112.86,439.859 3094.86,439.859 C 3029.44,439.859 2995.05,394.625 2995.05,343.941 L 2995.05,143.785 L 2862.78,143.785 L 2862.78,548.086" style="fill:#ee2722;fill-opacity:1;fill-rule:nonzero;stroke:none" id="path29"/><path d="M 3145.5,423.512 C 3147.82,476.324 3172.78,510.684 3208.48,531.758 C 3244.35,551.934 3291.02,559.766 3337.1,559.766 C 3432.82,559.766 3525.57,538.711 3525.57,424.215 L 3525.57,247.418 C 3525.57,213.16 3525.57,175.816 3541.2,143.785 L 3407.92,143.785 C 3403.29,156.305 3401.71,168.707 3400.14,181.93 C 3365.89,146.148 3315.28,132.184 3266.9,132.184 C 3189.86,132.184 3129.15,171.031 3129.15,254.469 C 3129.15,386.031 3272.43,375.875 3364.29,394.625 C 3386.93,399.293 3399.36,407.066 3399.36,432.027 C 3399.36,462.34 3362.84,474.039 3335.52,474.039 C 3298.88,474.039 3275.57,457.633 3269.29,423.512 L 3145.5,423.512 M 3316.85,213.941 C 3379.81,213.941 3400.89,249.723 3397.78,333.062 C 3379.15,321.5 3344.86,319.02 3316.02,311.285 C 3286.48,304.391 3261.53,291.871 3261.53,259.859 C 3261.53,227.203 3287.14,213.941 3316.85,213.941 L 3316.85,213.941" style="fill:#ee2722;fill-opacity:1;fill-rule:nonzero;stroke:none" id="path31"/><path d="M 3573.8,548.086 L 3702.38,548.086 L 3702.38,492.754 L 3703.92,492.754 C 3728.07,534.043 3782.53,559.766 3830.83,559.766 C 3965.61,559.766 3976.52,461.637 3976.52,403.141 L 3976.52,143.785 L 3844.17,143.785 L 3844.17,339.273 C 3844.17,394.625 3850.38,450.66 3777.9,450.66 C 3728.07,450.66 3706.26,408.668 3706.26,364.254 L 3706.26,143.785 L 3573.8,143.785 L 3573.8,548.086" style="fill:#ee2722;fill-opacity:1;fill-rule:nonzero;stroke:none" id="path33"/><path d="M 4288.88,399.996 C 4288.07,434.254 4257.69,458.453 4224.25,458.453 C 4150.25,458.453 4138.52,395.406 4138.52,339.273 C 4138.52,287.086 4161.12,233.414 4217.22,233.414 C 4263.14,233.414 4286.67,259.859 4292.71,302.613 L 4421.28,302.613 C 4409.6,194.449 4325.52,132.184 4217.98,132.184 C 4096.53,132.184 4006.06,215.523 4006.06,339.273 C 4006.06,467.809 4087.9,559.766 4217.98,559.766 C 4318.48,559.766 4408.06,506.758 4417.45,399.996 L 4288.88,399.996 L 4288.88,399.996" style="fill:#ee2722;fill-opacity:1;fill-rule:nonzero;stroke:none" id="path35"/><path d="M 4561.52,313.609 C 4563.84,258.316 4595.73,221.715 4651.85,221.715 C 4683.7,221.715 4714.93,236.539 4727.34,266.207 L 4851.24,266.207 C 4827.06,172.672 4740.56,132.184 4650.23,132.184 C 4518.62,132.184 4429.05,211.637 4429.05,347.105 C 4429.05,470.934 4528.02,559.766 4647.04,559.766 C 4792.02,559.766 4864.44,450.66 4858.21,313.609 L 4561.52,313.609 M 4725.83,387.438 C 4723.48,432.887 4691.53,470.191 4647.04,470.191 C 4600.4,470.191 4569.32,436.734 4561.52,387.438 L 4725.83,387.438 L 4725.83,387.438" style="fill:#ee2722;fill-opacity:1;fill-rule:nonzero;stroke:none" id="path37"/></g></g></svg>